<svg width="251" height="41" viewBox="0 0 251 41" fill="none" xmlns="http://www.w3.org/2000/svg">
<path d="M43.0497 29V9.25748H45.6409L52.7975 24.1055L59.9131 9.25748H62.5317V28.9863H59.8171V15.4819L53.4419 29H52.1394L45.7505 15.4819V29H43.0497ZM72.4359 29.4113C70.9643 29.4113 69.671 29.0914 68.5559 28.4516C67.45 27.8027 66.5862 26.9024 65.9647 25.7507C65.3523 24.5899 65.0461 23.2463 65.0461 21.7199C65.0461 20.1022 65.3478 18.6992 65.951 17.5109C66.5634 16.3227 67.4134 15.4042 68.5011 14.7552C69.5887 14.1063 70.8546 13.7818 72.2988 13.7818C73.8069 13.7818 75.0911 14.1337 76.1513 14.8375C77.2116 15.5321 78.0022 16.5238 78.5231 17.8126C79.0533 19.1013 79.2635 20.6323 79.1538 22.4054H76.2884V21.3635C76.2701 19.6452 75.9411 18.3747 75.3013 17.5521C74.6706 16.7295 73.7063 16.3182 72.4085 16.3182C70.9735 16.3182 69.8949 16.7706 69.1729 17.6755C68.4508 18.5803 68.0898 19.8874 68.0898 21.5966C68.0898 23.2235 68.4508 24.4848 69.1729 25.3805C69.8949 26.2671 70.9369 26.7104 72.2988 26.7104C73.1945 26.7104 73.9668 26.5093 74.6158 26.1072C75.2739 25.6959 75.7857 25.1109 76.1513 24.3523L78.9619 25.2434C78.386 26.5687 77.5132 27.597 76.3432 28.3282C75.1733 29.0503 73.8709 29.4113 72.4359 29.4113ZM67.1575 22.4054V20.1707H77.728V22.4054H67.1575ZM91.7162 29V21.7199C91.7162 21.1441 91.666 20.5546 91.5654 19.9513C91.474 19.339 91.2912 18.7723 91.017 18.2513C90.752 17.7303 90.3727 17.3099 89.8791 16.99C89.3947 16.6701 88.7594 16.5101 87.9734 16.5101C87.4616 16.5101 86.9771 16.5969 86.5201 16.7706C86.0631 16.9351 85.661 17.2048 85.3136 17.5795C84.9755 17.9542 84.7058 18.4478 84.5047 19.0602C84.3128 19.6726 84.2168 20.4175 84.2168 21.2949L82.4345 20.6231C82.4345 19.2795 82.6859 18.0959 83.1886 17.0722C83.6913 16.0394 84.4133 15.2351 85.3548 14.6593C86.2962 14.0834 87.4341 13.7955 88.7686 13.7955C89.7923 13.7955 90.6514 13.96 91.3461 14.2891C92.0407 14.6181 92.6028 15.0523 93.0324 15.5915C93.4711 16.1217 93.8048 16.7021 94.0333 17.3327C94.2618 17.9634 94.4171 18.5803 94.4994 19.1836C94.5817 19.7868 94.6228 20.3169 94.6228 20.7739V29H91.7162ZM81.3103 29V14.1931H83.8741V18.4707H84.2168V29H81.3103ZM106.163 29C105.23 29.1828 104.316 29.2605 103.421 29.2331C102.525 29.2057 101.725 29.032 101.021 28.7121C100.317 28.3922 99.7873 27.8895 99.4309 27.204C99.111 26.5916 98.9373 25.9701 98.9099 25.3394C98.8916 24.6996 98.8825 23.9775 98.8825 23.1732V10.0801H101.762V23.0361C101.762 23.6302 101.766 24.1466 101.775 24.5854C101.794 25.0241 101.89 25.3942 102.063 25.6959C102.392 26.2626 102.913 26.587 103.626 26.6693C104.348 26.7424 105.194 26.7104 106.163 26.5733V29ZM96.0445 16.4964V14.1931H106.163V16.4964H96.0445ZM114.541 29.4113C113.06 29.4113 111.776 29.0777 110.688 28.4105C109.601 27.7432 108.76 26.8247 108.166 25.6547C107.581 24.4757 107.288 23.1184 107.288 21.5828C107.288 20.0382 107.59 18.6809 108.193 17.5109C108.796 16.3319 109.642 15.4179 110.729 14.7689C111.817 14.1108 113.088 13.7818 114.541 13.7818C116.022 13.7818 117.306 14.1154 118.393 14.7826C119.481 15.4499 120.322 16.3684 120.916 17.5384C121.51 18.7083 121.807 20.0565 121.807 21.5828C121.807 23.1275 121.506 24.4894 120.902 25.6684C120.308 26.8384 119.467 27.757 118.38 28.4242C117.292 29.0823 116.012 29.4113 114.541 29.4113ZM114.541 26.7104C115.958 26.7104 117.013 26.2351 117.708 25.2846C118.412 24.3249 118.764 23.091 118.764 21.5828C118.764 20.0382 118.407 18.8043 117.694 17.8811C116.99 16.9488 115.939 16.4827 114.541 16.4827C113.581 16.4827 112.791 16.7021 112.169 17.1408C111.547 17.5704 111.086 18.169 110.784 18.9368C110.483 19.6954 110.332 20.5774 110.332 21.5828C110.332 23.1367 110.688 24.3797 111.401 25.312C112.114 26.2443 113.161 26.7104 114.541 26.7104ZM124.316 29V14.1931H126.866V17.7852L126.509 17.319C126.692 16.8437 126.93 16.4096 127.222 16.0165C127.515 15.6144 127.853 15.2853 128.237 15.0294C128.612 14.7552 129.028 14.545 129.485 14.3988C129.951 14.2434 130.426 14.152 130.91 14.1246C131.395 14.088 131.861 14.1108 132.309 14.1931V16.8803C131.824 16.7523 131.285 16.7158 130.691 16.7706C130.106 16.8254 129.567 17.0128 129.073 17.3327C128.607 17.6343 128.237 17.9999 127.963 18.4295C127.698 18.8591 127.506 19.339 127.387 19.8691C127.268 20.3901 127.209 20.943 127.209 21.528V29H124.316ZM144.323 29V11.9584H137.756V9.25748H153.755V11.9584H147.188V29H144.323ZM159.679 29.4113C158.199 29.4113 156.915 29.0777 155.827 28.4105C154.739 27.7432 153.898 26.8247 153.304 25.6547C152.719 24.4757 152.427 23.1184 152.427 21.5828C152.427 20.0382 152.728 18.6809 153.332 17.5109C153.935 16.3319 154.78 15.4179 155.868 14.7689C156.956 14.1108 158.226 13.7818 159.679 13.7818C161.16 13.7818 162.444 14.1154 163.532 14.7826C164.62 15.4499 165.461 16.3684 166.055 17.5384C166.649 18.7083 166.946 20.0565 166.946 21.5828C166.946 23.1275 166.644 24.4894 166.041 25.6684C165.447 26.8384 164.606 27.757 163.518 28.4242C162.431 29.0823 161.151 29.4113 159.679 29.4113ZM159.679 26.7104C161.096 26.7104 162.152 26.2351 162.847 25.2846C163.55 24.3249 163.902 23.091 163.902 21.5828C163.902 20.0382 163.546 18.8043 162.833 17.8811C162.129 16.9488 161.078 16.4827 159.679 16.4827C158.72 16.4827 157.929 16.7021 157.308 17.1408C156.686 17.5704 156.225 18.169 155.923 18.9368C155.621 19.6954 155.47 20.5774 155.47 21.5828C155.47 23.1367 155.827 24.3797 156.54 25.312C157.253 26.2443 158.299 26.7104 159.679 26.7104ZM169.441 29L169.454 9.25748H172.361V21.3224L178.174 14.1931H181.821L175.679 21.5966L182.452 29H178.558L172.361 21.8708V29H169.441ZM189.629 29.4113C188.158 29.4113 186.864 29.0914 185.749 28.4516C184.643 27.8027 183.78 26.9024 183.158 25.7507C182.546 24.5899 182.24 23.2463 182.24 21.7199C182.24 20.1022 182.541 18.6992 183.144 17.5109C183.757 16.3227 184.607 15.4042 185.694 14.7552C186.782 14.1063 188.048 13.7818 189.492 13.7818C191 13.7818 192.284 14.1337 193.345 14.8375C194.405 15.5321 195.196 16.5238 195.717 17.8126C196.247 19.1013 196.457 20.6323 196.347 22.4054H193.482V21.3635C193.463 19.6452 193.134 18.3747 192.495 17.5521C191.864 16.7295 190.9 16.3182 189.602 16.3182C188.167 16.3182 187.088 16.7706 186.366 17.6755C185.644 18.5803 185.283 19.8874 185.283 21.5966C185.283 23.2235 185.644 24.4848 186.366 25.3805C187.088 26.2671 188.13 26.7104 189.492 26.7104C190.388 26.7104 191.16 26.5093 191.809 26.1072C192.467 25.6959 192.979 25.1109 193.345 24.3523L196.155 25.2434C195.579 26.5687 194.707 27.597 193.537 28.3282C192.367 29.0503 191.064 29.4113 189.629 29.4113ZM184.351 22.4054V20.1707H194.921V22.4054H184.351ZM208.91 29V21.7199C208.91 21.1441 208.859 20.5546 208.759 19.9513C208.667 19.339 208.485 18.7723 208.21 18.2513C207.945 17.7303 207.566 17.3099 207.072 16.99C206.588 16.6701 205.953 16.5101 205.167 16.5101C204.655 16.5101 204.17 16.5969 203.713 16.7706C203.256 16.9351 202.854 17.2048 202.507 17.5795C202.169 17.9542 201.899 18.4478 201.698 19.0602C201.506 19.6726 201.41 20.4175 201.41 21.2949L199.628 20.6231C199.628 19.2795 199.879 18.0959 200.382 17.0722C200.885 16.0394 201.607 15.2351 202.548 14.6593C203.49 14.0834 204.628 13.7955 205.962 13.7955C206.986 13.7955 207.845 13.96 208.539 14.2891C209.234 14.6181 209.796 15.0523 210.226 15.5915C210.665 16.1217 210.998 16.7021 211.227 17.3327C211.455 17.9634 211.611 18.5803 211.693 19.1836C211.775 19.7868 211.816 20.3169 211.816 20.7739V29H208.91ZM198.504 29V14.1931H201.067V18.4707H201.41V29H198.504Z" fill="white"/>
<path d="M34.1434 13.0563C34.1434 12.6733 33.9357 12.3204 33.6009 12.1344L20.0227 4.59093C19.7042 4.41398 19.3169 4.41398 18.9983 4.59094L5.42008 12.1344C5.08527 12.3204 4.87762 12.6733 4.87762 13.0563V28.074C4.87762 28.457 5.08527 28.8099 5.42008 28.9959L18.9983 36.5394C19.3169 36.7163 19.7042 36.7163 20.0227 36.5394L33.6009 28.9959C33.9357 28.8099 34.1434 28.457 34.1434 28.074V13.0563ZM18.9987 8.31368C19.317 8.13702 19.704 8.13702 20.0223 8.31368L27.4577 12.4403C28.1815 12.842 28.1814 13.8829 27.4575 14.2846L24.9354 15.6839C24.517 15.916 23.9999 15.8301 23.6287 15.5282C22.5059 14.6153 21.0716 14.0616 19.5105 14.0616C17.9494 14.0616 16.5152 14.6153 15.3924 15.5282C15.0211 15.8301 14.504 15.916 14.0856 15.6839L11.5635 14.2846C10.8396 13.8829 10.8395 12.842 11.5634 12.4403L18.9987 8.31368ZM17.8846 30.4149C17.8846 31.2189 17.0212 31.7272 16.3182 31.3371L8.67222 27.0935C8.33719 26.9076 8.12938 26.5546 8.12938 26.1714V17.9032C8.12938 17.0989 8.99347 16.5906 9.69642 16.9814L12.4836 18.5308C12.9135 18.7698 13.1125 19.2744 13.0535 19.7627C13.0219 20.0241 13.007 20.2927 13.007 20.5651C13.007 23.3022 14.6984 25.653 17.1049 26.605C17.5534 26.7825 17.8846 27.1949 17.8846 27.6773V30.4149ZM16.2588 20.5651C16.2588 18.7767 17.722 17.3134 19.5105 17.3134C21.299 17.3134 22.7623 18.7767 22.7623 20.5651C22.7623 22.3536 21.299 23.8169 19.5105 23.8169C17.722 23.8169 16.2588 22.3536 16.2588 20.5651ZM22.7028 31.3371C21.9998 31.7272 21.1364 31.2189 21.1364 30.4149V27.6935C21.1364 27.2112 21.4676 26.7987 21.9161 26.6213C24.3226 25.6693 26.014 23.3185 26.014 20.5814C26.014 20.3017 25.9983 20.0259 25.9649 19.756C25.905 19.2711 26.1041 18.7717 26.5311 18.5343L29.3246 16.9814C30.0275 16.5906 30.8916 17.0989 30.8916 17.9032V26.1714C30.8916 26.5546 30.6838 26.9076 30.3488 27.0935L22.7028 31.3371Z" fill="white"/>
</svg>
