<svg width="39" height="38" viewBox="0 0 39 38" fill="none" xmlns="http://www.w3.org/2000/svg">
<g clip-path="url(#clip0_1_10760)">
<path d="M26.0309 23.1694C25.3511 22.9873 24.9477 22.2885 25.1298 21.6087L27.7684 11.7614L17.9211 9.12287C17.2413 8.94072 16.8379 8.24195 17.02 7.56214C17.2022 6.88233 17.901 6.4789 18.5808 6.66105L29.6589 9.62944C30.3387 9.8116 30.7422 10.5104 30.56 11.1902L27.5916 22.2683C27.4095 22.9482 26.7107 23.3516 26.0309 23.1694ZM18.2273 27.6749C17.5474 27.4927 17.144 26.794 17.3262 26.1141L19.9647 16.2669L10.1175 13.6283C9.43766 13.4462 9.03423 12.7474 9.21639 12.0676C9.39854 11.3878 10.0973 10.9843 10.7771 11.1665L21.8553 14.1349C22.5351 14.317 22.9385 15.0158 22.7564 15.6956L19.788 26.7738C19.6058 27.4536 18.9071 27.857 18.2273 27.6749Z" fill="#CBC6D7"/>
</g>
<defs>
<clipPath id="clip0_1_10760">
<rect width="30.5839" height="30.5839" fill="white" transform="translate(8.49219) rotate(15)"/>
</clipPath>
</defs>
</svg>
