<svg width="39" height="38" viewBox="0 0 39 38" fill="none" xmlns="http://www.w3.org/2000/svg">
<g clip-path="url(#clip0_1_10758)">
<path d="M26.0309 23.2075C25.3511 23.0254 24.9477 22.3266 25.1298 21.6468L27.7684 11.7995L17.9211 9.16096C17.2413 8.9788 16.8379 8.28004 17.02 7.60023C17.2022 6.92042 17.901 6.51699 18.5808 6.69914L29.6589 9.66753C30.3387 9.84968 30.7422 10.5484 30.56 11.2283L27.5916 22.3064C27.4095 22.9862 26.7107 23.3897 26.0309 23.2075ZM18.2273 27.713C17.5474 27.5308 17.144 26.832 17.3262 26.1522L19.9647 16.305L10.1175 13.6664C9.43766 13.4842 9.03423 12.7855 9.21639 12.1057C9.39854 11.4259 10.0973 11.0224 10.7771 11.2046L21.8553 14.173C22.5351 14.3551 22.9385 15.0539 22.7564 15.7337L19.788 26.8119C19.6058 27.4917 18.9071 27.8951 18.2273 27.713Z" fill="#6C6EFF"/>
</g>
<defs>
<clipPath id="clip0_1_10758">
<rect width="30.5839" height="30.5839" fill="white" transform="translate(8.49219 0.0380859) rotate(15)"/>
</clipPath>
</defs>
</svg>
