<svg width="1240" height="88" viewBox="0 0 1240 88" fill="none" xmlns="http://www.w3.org/2000/svg">
<g clip-path="url(#clip0_35_390)">
<path d="M55.2064 42.3611C55.1526 42.2907 55.0815 42.2353 55 42.2004C54.9186 42.1655 54.8294 42.1521 54.7413 42.1617C54.6532 42.1713 54.569 42.2034 54.4969 42.255C54.4248 42.3067 54.3673 42.376 54.3299 42.4564L49.8881 51.3372C49.8476 51.4181 49.8285 51.508 49.8326 51.5984C49.8366 51.6888 49.8637 51.7767 49.9113 51.8537C49.9589 51.9306 50.0253 51.9942 50.1044 52.0382C50.1834 52.0823 50.2724 52.1055 50.3629 52.1055H56.5478C56.6469 52.1078 56.7445 52.0813 56.8288 52.0292C56.9131 51.9771 56.9804 51.9016 57.0226 51.812C58.3568 49.055 57.5483 44.8632 55.2064 42.3611Z" fill="#232323"/>
<path d="M58.4643 34.2839C57.3576 35.9869 56.7126 37.9483 56.5927 39.9758C56.4728 42.0033 56.8821 44.0271 57.7805 45.8486L60.7623 51.8123C60.8064 51.9005 60.8741 51.9746 60.958 52.0265C61.0419 52.0783 61.1385 52.1058 61.2371 52.1058H67.421C67.5114 52.1058 67.6004 52.0826 67.6795 52.0386C67.7585 51.9945 67.8249 51.931 67.8725 51.854C67.9201 51.777 67.9472 51.6892 67.9513 51.5988C67.9553 51.5084 67.9362 51.4184 67.8958 51.3375C67.8958 51.3375 59.5764 34.6968 59.3673 34.2806C59.326 34.1959 59.2616 34.1245 59.1815 34.0747C59.1015 34.0249 59.009 33.9987 58.9148 33.999C58.8205 33.9994 58.7282 34.0263 58.6486 34.0767C58.5689 34.1271 58.5051 34.1989 58.4643 34.2839Z" fill="#232323"/>
<path d="M130.998 41.4043C130.998 43.6034 132.018 45.3494 136.009 46.1201C138.389 46.6199 138.888 47.0042 138.888 47.7978C138.888 48.5686 138.388 49.0676 136.711 49.0676C134.685 49.0311 132.699 48.4937 130.93 47.5032V51.0851C132.132 51.6745 133.719 52.332 136.666 52.332C140.838 52.332 142.493 50.4717 142.493 47.707L130.998 41.4043ZM142.493 47.707C142.493 45.0997 141.11 43.8752 137.21 43.0367C135.057 42.5605 134.535 42.0846 134.535 41.4043C134.535 40.5435 135.306 40.1801 136.734 40.1801C138.457 40.1801 140.158 40.7015 141.767 41.4271V38.0035C140.224 37.301 138.543 36.9524 136.847 36.9833C132.993 36.9833 130.998 38.661 130.998 41.4043" fill="#232323"/>
<path d="M184.592 37.21V52.1055H187.766V40.7468L189.104 43.762L193.593 52.1055H197.583V37.21H194.409V46.823L193.207 44.0341L189.602 37.21H184.592Z" fill="#232323"/>
<path d="M164.404 37.21H160.936V52.1055H164.404V37.21Z" fill="#232323"/>
<path d="M156.933 47.707C156.933 45.0997 155.55 43.8752 151.65 43.0367C149.496 42.5605 148.975 42.0846 148.975 41.4043C148.975 40.5435 149.746 40.1801 151.174 40.1801C152.897 40.1801 154.598 40.7015 156.207 41.4271V38.0035C154.664 37.301 152.983 36.9524 151.287 36.9833C147.433 36.9833 145.438 38.661 145.438 41.4043C145.438 43.6034 146.458 45.3494 150.449 46.1201C152.829 46.6199 153.328 47.0042 153.328 47.7978C153.328 48.5686 152.828 49.0676 151.151 49.0676C149.125 49.0311 147.139 48.4937 145.37 47.5032V51.0851C146.572 51.6745 148.159 52.332 151.106 52.332C155.278 52.332 156.933 50.4717 156.933 47.707Z" fill="#232323"/>
<path d="M104.05 37.21V52.1055H111.18L112.303 48.886H107.542V37.21H104.05Z" fill="#232323"/>
<path d="M89.9644 37.21V40.4292H93.8186V52.1055H97.31V40.4292H101.436V37.21H89.9644Z" fill="#232323"/>
<path d="M84.9017 37.21H80.3261L75.1318 52.1055H79.0985L79.8349 49.5968C81.6485 50.1294 83.5769 50.1294 85.3904 49.5968L86.1268 52.1055H90.0943L84.9017 37.21ZM82.6138 46.9107C81.9676 46.9107 81.3248 46.8182 80.7048 46.6361L82.6138 40.1357L84.5227 46.6383C83.9026 46.8197 83.2598 46.9114 82.6138 46.9107Z" fill="#232323"/>
<path d="M123.472 37.21H118.897L113.703 52.1055H117.67L118.407 49.5968C120.22 50.1294 122.148 50.1294 123.962 49.5968L124.698 52.1055H128.666L123.472 37.21ZM121.185 46.9107C120.538 46.9107 119.896 46.8182 119.276 46.6361L121.185 40.1357L123.094 46.6383C122.473 46.8197 121.831 46.9114 121.185 46.9107Z" fill="#232323"/>
<path d="M176.904 37.21H172.329L167.134 52.1055H171.102L171.838 49.5968C173.652 50.1294 175.58 50.1294 177.394 49.5968L178.13 52.1055H182.098L176.904 37.21ZM174.615 46.9107C173.969 46.9107 173.326 46.8182 172.706 46.6361L174.615 40.1357L176.524 46.6383C175.904 46.8197 175.261 46.9114 174.615 46.9107Z" fill="#232323"/>
</g>
<g clip-path="url(#clip1_35_390)">
<path d="M345.604 49.0469C345.208 49.1458 344.714 49.2448 344.219 49.2448C343.229 49.2448 342.833 48.651 342.833 47.6615V43.2083H345.604C346.297 43.2083 346.99 42.7135 346.99 41.9219C346.99 41.1302 346.396 40.6354 345.604 40.6354H342.833V39.151C342.833 38.2604 342.141 37.6667 341.349 37.6667C340.557 37.6667 339.865 38.3594 339.865 39.151V47.7604C339.865 50.2344 341.052 52.0156 343.823 52.0156C344.615 52.0156 345.703 51.9167 346.495 51.5208C347.188 51.224 347.386 50.7292 347.386 50.2344C347.386 49.5417 346.693 48.849 345.604 49.0469ZM355.5 40.2396C355.104 40.1406 354.313 40.0417 353.62 40.0417C351.146 40.0417 349.761 41.526 349.761 43.8021V50.5312C349.761 51.3229 350.453 52.0156 351.245 52.0156C352.037 52.0156 352.729 51.3229 352.729 50.5312V44.3958C352.729 43.4062 353.125 43.0104 353.818 43.0104C354.511 43.0104 354.906 43.2083 355.5 43.2083C356.391 43.2083 356.886 42.4167 356.886 41.8229C356.787 41.0313 356.391 40.5365 355.5 40.2396ZM363.714 40.0417C360.943 40.0417 358.964 41.8229 358.667 44.6927C358.667 45.3854 358.568 46.5729 358.667 47.4635C358.865 50.2344 360.844 52.1146 363.813 52.1146C365.198 52.1146 366.485 51.8177 367.276 51.3229C367.87 50.9271 367.969 50.5313 367.969 50.1354C367.969 49.3438 367.276 48.5521 366.089 48.9479C365.396 49.2448 364.604 49.4427 363.813 49.4427C362.427 49.4427 361.339 48.75 361.339 47.3646V47.0677H366.979C367.969 47.0677 368.464 46.474 368.464 45.5833V45.0885C368.563 42.0208 366.583 40.0417 363.714 40.0417ZM365.594 45.0885H361.438C361.438 43.6042 362.13 42.6146 363.714 42.6146C365.099 42.6146 365.891 43.5052 365.792 44.7917C365.792 44.9896 365.792 45.0885 365.594 45.0885ZM375.589 40.0417C372.818 40.0417 370.839 41.8229 370.542 44.6927C370.542 45.3854 370.443 46.5729 370.542 47.4635C370.74 50.2344 372.719 52.1146 375.688 52.1146C377.073 52.1146 378.36 51.8177 379.151 51.3229C379.745 50.9271 379.844 50.5313 379.844 50.1354C379.844 49.3438 379.151 48.5521 377.964 48.9479C377.271 49.2448 376.479 49.4427 375.688 49.4427C374.302 49.4427 373.214 48.75 373.214 47.3646V47.0677H378.854C379.844 47.0677 380.339 46.474 380.339 45.5833V45.0885C380.438 42.0208 378.458 40.0417 375.589 40.0417ZM377.469 45.0885H373.313C373.313 43.6042 374.005 42.6146 375.589 42.6146C376.974 42.6146 377.766 43.5052 377.667 44.7917C377.667 44.9896 377.667 45.0885 377.469 45.0885ZM425.563 44.9896L423.979 44.5938C422.99 44.3958 422.693 44.099 422.693 43.6042C422.693 43.1094 423.188 42.7135 424.276 42.7135C424.87 42.7135 425.563 42.9115 426.156 43.2083C426.849 43.6042 427.641 43.5052 428.037 43.0104C428.531 42.5156 428.531 41.625 427.938 41.0312C427.146 40.4375 425.761 40.0417 424.375 40.0417C421.802 40.0417 419.922 41.3281 419.922 43.7031C419.922 45.5833 421.307 46.5729 423.089 47.0677C423.979 47.2656 423.88 47.2656 424.672 47.4635C425.563 47.6615 425.958 48.0573 425.958 48.4531C425.958 49.0469 425.464 49.4427 424.276 49.4427C423.287 49.4427 422.396 49.1458 421.703 48.75C421.011 48.2552 420.219 48.4531 419.823 49.0469C419.427 49.6406 419.526 50.4323 420.12 50.8281C420.912 51.5208 422.198 52.1146 424.276 52.1146C426.849 52.1146 428.828 50.7292 428.828 48.3542C428.828 46.5729 427.74 45.4844 425.563 44.9896ZM439.318 47.0677C440.307 47.0677 440.802 46.474 440.802 45.5833V45.0885C440.802 42.0208 438.823 40.0417 435.953 40.0417C433.182 40.0417 431.203 41.8229 430.906 44.6927C430.906 45.3854 430.807 46.5729 430.906 47.4635C431.104 50.2344 433.083 52.1146 436.052 52.1146C437.438 52.1146 438.724 51.8177 439.516 51.3229C440.11 50.9271 440.208 50.5313 440.208 50.1354C440.208 49.3438 439.516 48.5521 438.328 48.9479C437.636 49.2448 436.844 49.4427 436.052 49.4427C434.667 49.4427 433.578 48.75 433.578 47.3646V47.0677H439.318ZM435.953 42.6146C437.339 42.6146 438.13 43.5052 438.031 44.7917C438.031 44.9896 437.932 45.0885 437.833 45.0885H433.677C433.677 43.6042 434.469 42.6146 435.953 42.6146ZM399.735 40.0417C396.766 40.0417 394.589 41.9219 394.292 44.4948C394.193 45.3854 394.193 46.7708 394.292 47.6615C394.49 50.2344 396.766 52.1146 399.735 52.1146C402.703 52.1146 404.88 50.2344 405.078 47.6615C405.177 46.7708 405.177 45.4844 405.078 44.5938C404.88 41.9219 402.703 40.0417 399.735 40.0417ZM402.11 47.1667C402.011 48.4531 401.12 49.2448 399.735 49.2448C398.349 49.2448 397.458 48.3542 397.36 47.1667C397.36 46.5729 397.36 45.5833 397.36 44.9896C397.458 43.7031 398.349 42.9115 399.735 42.9115C401.12 42.9115 402.011 43.8021 402.11 44.9896C402.208 45.5833 402.208 46.5729 402.11 47.1667ZM387.958 40.0417C386.87 40.0417 385.682 40.4375 385.287 40.9323V37.7656C385.287 36.875 384.693 36.2812 383.901 36.2812C383.11 36.2812 382.516 36.974 382.516 37.7656V50.5312C382.516 51.3229 383.208 52.0156 384 52.0156C384.792 52.0156 385.386 51.3229 385.386 50.5312V43.901C385.88 43.4062 386.672 43.0104 387.662 43.0104C388.849 43.0104 389.542 43.7031 389.542 45.0885V50.5312C389.542 51.4219 390.136 52.1146 390.927 52.1146C391.818 52.1146 392.412 51.4219 392.412 50.5312V44.8906C392.313 41.724 390.729 40.0417 387.958 40.0417ZM415.667 40.1406C414.875 40.1406 414.182 40.8333 414.182 41.625V48.651C413.688 48.9479 412.995 49.2448 412.104 49.2448C410.917 49.2448 410.026 48.5521 410.026 47.1667V41.625C410.026 40.7344 409.333 40.0417 408.542 40.0417C407.651 40.0417 407.156 40.7344 407.156 41.625V47.2656C407.156 50.3333 408.938 52.0156 412.005 52.0156C414.281 52.0156 415.865 51.224 416.557 50.7292C416.953 50.5312 417.052 50.2344 417.052 49.7396V41.625C417.052 40.8333 416.458 40.1406 415.667 40.1406Z" fill="#232323"/>
<path d="M328.979 34.0052C327.891 33.4115 326.208 34.401 325.219 36.1823L323.339 39.349C322.646 40.6354 322.745 42.2188 323.635 43.5052L323.734 43.6042C324.625 44.7917 325.714 45.9792 326.109 46.375C326.307 46.5729 326.505 46.8698 326.604 47.2656C326.901 48.3542 326.307 49.5417 325.12 49.8385C324.031 50.1354 322.844 49.5417 322.547 48.3542C322.448 48.0573 322.448 47.7604 322.448 47.5625C322.547 47.0677 322.349 46.375 321.656 45.5833C320.964 44.8906 319.677 46.276 319.182 47.6615V47.7604C318.786 49.1458 318.49 50.4323 318.589 50.5313C318.589 50.6302 318.688 50.6302 318.688 50.7292C319.281 51.9167 318.885 53.3021 317.698 53.8958C316.51 54.4896 315.125 54.0938 314.531 52.9063C313.938 51.7188 314.333 50.3333 315.521 49.7396C315.62 49.7396 315.62 49.6406 315.719 49.6406C315.818 49.6406 316.016 49.0469 316.312 48.2552C316.51 47.5625 316.609 47.2656 316.708 46.9688C316.807 46.5729 317.005 45.5833 316.906 45.1875C316.807 44.6927 316.312 44.6927 315.818 44.9896C315.521 45.1875 314.927 45.6823 314.729 45.8802C314.234 46.276 313.839 46.8698 313.641 47.3646C313.542 47.5625 313.344 47.8594 313.146 48.0573C312.255 48.75 310.969 48.651 310.177 47.7604C309.484 46.8698 309.583 45.5833 310.474 44.7917C310.771 44.5938 311.068 44.3958 311.365 44.3958C311.859 44.2969 313.641 43.2083 314.729 42.4167C314.927 42.3177 315.224 42.0208 315.323 41.9219C315.62 41.526 315.323 41.2292 315.026 41.2292C314.135 41.3281 313.146 41.4271 312.948 41.724C312.849 41.8229 312.75 42.0208 312.552 42.1198C311.76 42.7135 310.573 42.5156 309.979 41.724C309.385 40.9323 309.583 39.7448 310.375 39.151C310.672 38.8542 311.167 38.7552 311.464 38.7552C312.156 38.7552 313.938 39.151 315.323 38.8542L315.719 38.7552C317.203 38.4583 318.984 37.1719 319.677 35.8854C319.677 35.8854 320.37 34.6979 321.161 33.2135C322.052 31.7292 321.953 30.0469 321.062 29.5521L319.38 28.5625C318.49 28.0677 317.203 28.0677 316.312 28.5625L304.833 35.0938C303.943 35.5885 303.25 36.776 303.25 37.7656V50.4323C303.25 51.4219 303.943 52.6094 304.833 53.1042L316.312 59.6354C317.203 60.1302 318.589 60.1302 319.38 59.6354L330.859 53.1042C331.75 52.6094 332.443 51.4219 332.443 50.4323V37.7656C332.443 36.776 331.75 35.5885 330.859 35.0938C330.859 35.0938 330.068 34.599 328.979 34.0052Z" fill="#232323"/>
</g>
<g clip-path="url(#clip2_35_390)">
<path fill-rule="evenodd" clip-rule="evenodd" d="M598.919 49.1399C598.919 49.7332 598.484 50.221 597.865 50.221C597.263 50.221 596.828 49.7321 596.828 49.1399V38.8321C596.828 38.2388 597.263 37.751 597.882 37.751C598.484 37.751 598.919 38.2399 598.919 38.8321V49.1399Z" fill="#232323"/>
<path fill-rule="evenodd" clip-rule="evenodd" d="M612.432 38.8321V48.2509C612.432 49.5243 611.78 50.2398 610.743 50.2398H610.66C609.674 50.2398 609.205 49.6465 608.787 48.7742L606.68 44.501L604.806 40.0887L604.857 44.3621L604.874 49.1232C604.874 49.7165 604.439 50.2043 603.82 50.2043C603.218 50.2043 602.783 49.7154 602.783 49.1232V39.7043C602.783 38.5354 603.435 37.7154 604.573 37.7154H604.657C605.71 37.7154 606.145 38.3088 606.563 39.181L608.637 43.4198L610.41 47.5365L610.36 43.5943L610.343 38.8332C610.343 38.2399 610.777 37.7521 611.397 37.7521C611.997 37.751 612.432 38.2388 612.432 38.8321Z" fill="#232323"/>
<path fill-rule="evenodd" clip-rule="evenodd" d="M620.812 49.1232C620.812 49.7165 620.377 50.2043 619.758 50.2043C619.157 50.2043 618.722 49.7154 618.722 49.1232V39.7921H616.129C615.595 39.7921 615.16 39.3732 615.16 38.7632C615.16 38.1699 615.595 37.7521 616.129 37.7521H623.404C623.939 37.7521 624.374 38.171 624.374 38.781C624.374 39.3744 623.939 39.7921 623.404 39.7921H620.812V49.1232Z" fill="#232323"/>
<path fill-rule="evenodd" clip-rule="evenodd" d="M627.1 48.7744V39.0944C627.1 38.1878 627.585 37.6822 628.472 37.7167H634.493C635.027 37.7167 635.462 38.1522 635.462 38.7456C635.462 39.3389 635.027 39.7566 634.493 39.7566H629.174V42.7566H633.873C634.392 42.7566 634.81 43.1577 634.81 43.7333C634.81 44.3089 634.392 44.71 633.873 44.71H629.174V48.1633H634.493C635.027 48.1633 635.462 48.5989 635.462 49.1922C635.462 49.7855 635.027 50.2033 634.493 50.2033H628.421C627.552 50.2044 627.068 49.6988 627.1 48.7744Z" fill="#232323"/>
<path fill-rule="evenodd" clip-rule="evenodd" d="M646.853 50.2566C647.438 49.9422 647.622 49.2966 647.337 48.7911L645.247 44.92C646.97 44.5711 647.973 43.2455 647.973 41.4489C647.973 39.5655 646.837 37.7167 644.11 37.7167H640.147C639.26 37.6822 638.775 38.1878 638.775 39.0944V49.1411C638.775 49.7333 639.21 50.2222 639.812 50.2222C640.431 50.2222 640.866 49.7344 640.866 49.1411L640.849 45.3388H643.056L645.381 49.8211C645.664 50.3266 646.284 50.5533 646.853 50.2566ZM644.159 43.3667H640.847V39.7556H644.142C645.246 39.7556 645.865 40.4878 645.865 41.5522C645.865 42.6166 645.28 43.3667 644.159 43.3667Z" fill="#232323"/>
<path fill-rule="evenodd" clip-rule="evenodd" d="M652.287 49.2799C651.033 48.111 650.465 46.2799 650.465 43.9777C650.465 41.6577 651.017 39.8443 652.255 38.6932C653.024 37.9955 654.06 37.5244 655.566 37.5244C656.887 37.5244 657.908 37.8388 658.677 38.5188C659.346 39.0766 659.831 39.8621 660.115 40.961C660.265 41.5366 659.881 42.1121 659.246 42.2343C658.644 42.3388 658.159 41.9377 657.975 41.3621C657.774 40.8044 657.506 40.4032 657.189 40.1232C656.754 39.7221 656.219 39.5477 655.516 39.5477C654.763 39.5477 654.111 39.7744 653.626 40.2799C652.923 41.0121 652.622 42.321 652.622 43.9777C652.622 45.6176 652.907 46.9254 653.643 47.6577C654.127 48.1632 654.763 48.3899 655.499 48.3899C656.268 48.3899 656.853 48.181 657.339 47.7099C657.589 47.4655 657.808 47.1521 657.958 46.7854C658.175 46.2443 658.627 45.8432 659.212 45.9832C659.797 46.1232 660.166 46.7154 659.981 47.291C659.68 48.2499 659.162 49.0177 658.459 49.541C657.69 50.1165 656.737 50.4132 655.533 50.4132C653.994 50.4132 653.024 49.9421 652.287 49.2799Z" fill="#232323"/>
<path fill-rule="evenodd" clip-rule="evenodd" d="M667.641 37.5244C664.012 37.5244 662.473 40.071 662.473 43.9777C662.473 48.0065 663.996 50.431 667.641 50.431C671.22 50.431 672.793 48.0065 672.793 43.9777C672.793 40.001 671.237 37.5244 667.641 37.5244ZM667.624 39.5655C669.615 39.5655 670.651 41.0121 670.651 43.9777C670.651 46.9421 669.598 48.3899 667.624 48.3899C665.634 48.3899 664.63 46.9432 664.63 43.9777C664.63 41.0133 665.667 39.5655 667.624 39.5655Z" fill="#232323"/>
<path fill-rule="evenodd" clip-rule="evenodd" d="M689.016 49.1231C689.016 49.7165 688.581 50.2043 687.962 50.2043C687.36 50.2043 686.925 49.7154 686.925 49.1231V44.4487L686.976 39.8965L685.52 44.5187L684.049 49.0709C683.799 49.8732 683.28 50.1876 682.627 50.1876C681.941 50.1876 681.44 49.8565 681.172 49.0543L679.667 44.5199L678.278 39.9676L678.328 44.4499V49.1243C678.328 49.7176 677.893 50.2054 677.275 50.2054C676.673 50.2054 676.238 49.7165 676.238 49.1243V39.7932C676.238 38.5021 676.907 37.7521 678.078 37.7521C679.182 37.7521 679.801 38.3621 680.151 39.4788L681.69 44.2399L682.626 47.4843L683.58 44.2399L685.118 39.4788C685.47 38.3621 686.072 37.7521 687.176 37.7521C688.347 37.7521 688.999 38.4843 688.999 39.7932L689.016 49.1231Z" fill="#232323"/>
<path d="M579.948 45.7597C579.948 46.0717 579.829 46.3709 579.616 46.5916C579.403 46.8121 579.115 46.9361 578.814 46.9361C578.513 46.9361 578.224 46.8121 578.012 46.5916C577.799 46.3709 577.679 46.0717 577.679 45.7597V35.2501C577.679 34.9381 577.799 34.6388 578.012 34.4182C578.224 34.1976 578.513 34.0736 578.814 34.0736C579.115 34.0736 579.403 34.1976 579.616 34.4182C579.829 34.6388 579.948 34.9381 579.948 35.2501V45.7597ZM579.554 53.0416C579.404 53.1972 575.186 56.843 567.451 56.843C559.717 56.843 555.526 53.2166 555.348 53.0611C555.236 52.9629 555.143 52.8428 555.076 52.7075C555.008 52.5721 554.967 52.4244 554.955 52.2727C554.943 52.1209 554.96 51.9682 555.005 51.8232C555.05 51.6782 555.122 51.5438 555.217 51.4277C555.412 51.1928 555.69 51.0477 555.988 51.024C556.287 51.0003 556.582 51.1001 556.81 51.3014C556.876 51.35 560.645 54.5194 567.442 54.5194C574.239 54.5194 578.036 51.3305 578.073 51.3014C578.304 51.1019 578.6 51.0035 578.899 51.0271C579.199 51.0506 579.478 51.1944 579.676 51.4277C579.868 51.6592 579.963 51.9595 579.942 52.2635C579.921 52.5676 579.785 52.8507 579.564 53.0514L579.554 53.0416ZM554.945 35.2501C554.962 34.9371 555.097 34.6438 555.322 34.4342C555.547 34.2248 555.843 34.1161 556.145 34.132C556.425 34.1485 556.689 34.2718 556.886 34.4783C557.083 34.6847 557.2 34.9597 557.213 35.2501V45.7403C557.213 46.0523 557.094 46.3515 556.881 46.5721C556.669 46.7927 556.38 46.9166 556.079 46.9166C555.778 46.9166 555.49 46.7927 555.277 46.5721C555.064 46.3515 554.945 46.0523 554.945 45.7403V35.2501ZM560.635 32.9167C560.652 32.6037 560.788 32.3104 561.013 32.1009C561.238 31.8914 561.534 31.7827 561.835 31.7987C562.115 31.8151 562.379 31.9385 562.577 32.145C562.774 32.3514 562.891 32.6263 562.904 32.9167V48.4722C562.904 48.7842 562.785 49.0834 562.572 49.304C562.359 49.5246 562.071 49.6486 561.77 49.6486C561.469 49.6486 561.18 49.5246 560.968 49.304C560.755 49.0834 560.635 48.7842 560.635 48.4722V32.9167ZM566.354 32.3334C566.354 32.0214 566.474 31.7222 566.686 31.5016C566.899 31.2809 567.188 31.157 567.489 31.157C567.789 31.157 568.078 31.2809 568.291 31.5016C568.503 31.7222 568.623 32.0214 568.623 32.3334V49.25C568.623 49.562 568.503 49.8612 568.291 50.0818C568.078 50.3024 567.789 50.4264 567.489 50.4264C567.188 50.4264 566.899 50.3024 566.686 50.0818C566.474 49.8612 566.354 49.562 566.354 49.25V32.3334ZM571.979 32.9167C571.979 32.6047 572.099 32.3055 572.312 32.0849C572.524 31.8643 572.813 31.7403 573.114 31.7403C573.415 31.7403 573.703 31.8643 573.916 32.0849C574.129 32.3055 574.248 32.6047 574.248 32.9167V48.4722C574.248 48.7842 574.129 49.0834 573.916 49.304C573.703 49.5246 573.415 49.6486 573.114 49.6486C572.813 49.6486 572.524 49.5246 572.312 49.304C572.099 49.0834 571.979 48.7842 571.979 48.4722V32.9167ZM580.258 26.5001H554.682C554.125 26.4962 553.572 26.6064 553.056 26.8243C552.54 27.0422 552.07 27.3636 551.674 27.7699C551.278 28.1764 550.963 28.6598 550.747 29.1926C550.531 29.7254 550.419 30.2972 550.417 30.8751V57.1249C550.419 57.7028 550.531 58.2746 550.747 58.8074C550.963 59.3402 551.278 59.8237 551.674 60.2301C552.07 60.6364 552.54 60.9578 553.056 61.1757C553.572 61.3936 554.125 61.5036 554.682 61.4999H580.258C580.814 61.5036 581.366 61.3939 581.881 61.1766C582.397 60.9593 582.866 60.6388 583.262 60.2335C583.658 59.8281 583.974 59.3458 584.19 58.8142C584.406 58.2824 584.52 57.7118 584.523 57.1347V30.8751C584.521 30.298 584.409 29.727 584.193 29.1949C583.978 28.6627 583.664 28.1797 583.269 27.7734C582.874 27.3672 582.405 27.0456 581.89 26.8271C581.375 26.6086 580.823 26.4975 580.267 26.5001" fill="#232323"/>
</g>
<g clip-path="url(#clip3_35_390)">
<path fill-rule="evenodd" clip-rule="evenodd" d="M823.903 44.5157C823.903 38.7596 822.937 36.3735 820.281 36.3735C817.938 36.3735 816.755 38.0463 816.755 43.8517C816.755 49.583 817.672 51.9447 820.377 51.9447C822.768 51.9447 823.903 50.2964 823.903 44.5157ZM812.167 44.3683C812.167 37.8986 816.537 35.3405 820.426 35.3405C824.579 35.3405 828.491 37.8742 828.491 43.9746C828.491 50.4932 824.12 52.9778 820.232 52.9778C816.079 52.9778 812.167 50.272 812.167 44.3683Z" fill="#232323"/>
<path fill-rule="evenodd" clip-rule="evenodd" d="M848.159 44.7863L852.289 44.5649C852.289 41.5886 851.903 40.5061 850.454 40.5061C849.222 40.5061 848.256 41.6869 848.159 44.7863ZM844.344 46.2377C844.344 41.9575 847.459 39.5714 850.647 39.5714C853.94 39.5714 856.007 41.229 856.125 45.5657C856.127 45.65 856.06 45.7211 855.977 45.7211H848.311C848.228 45.7211 848.161 45.7922 848.163 45.8767C848.271 49.7841 849.761 50.8624 852.216 50.8624C853.415 50.8624 854.381 50.5787 855.189 50.2135C855.249 50.1864 855.318 50.2023 855.36 50.253L855.682 50.6377C855.73 50.6958 855.729 50.7816 855.678 50.8368C854.797 51.7831 853.004 52.9779 850.647 52.9779C846.445 52.9779 844.344 50.4195 844.344 46.2377Z" fill="#232323"/>
<path fill-rule="evenodd" clip-rule="evenodd" d="M894.072 46.4345C894.072 41.4655 893.13 40.5307 891.488 40.5307C889.966 40.5307 889.073 41.6623 889.073 45.8934C889.073 50.9363 889.87 52.0184 891.633 52.0184C893.082 52.0184 894.072 51.1575 894.072 46.4345ZM885.016 46.3116C885.016 41.5884 888.3 39.5714 891.56 39.5714C895.062 39.5714 898.129 41.7115 898.129 46.1885C898.129 50.9115 894.893 52.9781 891.56 52.9781C888.059 52.9781 885.016 50.813 885.016 46.3116Z" fill="#232323"/>
<path fill-rule="evenodd" clip-rule="evenodd" d="M908.476 46.4345C908.476 41.4655 907.534 40.5307 905.892 40.5307C904.37 40.5307 903.477 41.6623 903.477 45.8934C903.477 50.9363 904.274 52.0184 906.037 52.0184C907.486 52.0184 908.476 51.1575 908.476 46.4345ZM899.42 46.3116C899.42 41.5884 902.704 39.5714 905.964 39.5714C909.466 39.5714 912.533 41.7115 912.533 46.1885C912.533 50.9115 909.297 52.9781 905.964 52.9781C902.463 52.9781 899.42 50.813 899.42 46.3116Z" fill="#232323"/>
<path fill-rule="evenodd" clip-rule="evenodd" d="M866.052 39.5714C864.29 39.5714 862.696 40.3833 861.416 41.3178H861.319L861.367 39.7669C861.37 39.648 861.27 39.5536 861.154 39.5669L857.775 39.9571C857.675 39.9684 857.6 40.0539 857.6 40.1558V52.4876C857.6 52.5954 857.686 52.6826 857.792 52.6826H861.248C861.354 52.6826 861.44 52.5954 861.44 52.4876V42.1789C861.971 42.0558 862.841 41.8592 863.686 41.8592C864.821 41.8592 865.352 42.3265 865.352 43.827V52.4876C865.352 52.5954 865.438 52.6826 865.544 52.6826H869.025C869.13 52.6826 869.216 52.5954 869.216 52.4876V42.8679C869.216 40.6538 868.105 39.5714 866.052 39.5714Z" fill="#232323"/>
<path fill-rule="evenodd" clip-rule="evenodd" d="M879.576 50.4933C879.19 50.641 878.538 51.0346 877.548 51.0346C875.712 51.0346 874.747 49.7799 874.747 45.9179C874.747 41.859 875.954 40.5553 877.693 40.5553C878.586 40.5553 879.166 41.0718 879.576 41.5884V50.4933ZM883.416 37.1607C883.416 35.8892 883.459 34.7209 883.481 34.2414C883.488 34.1012 883.371 33.9885 883.233 34.0009L879.755 34.4033C879.654 34.4126 879.576 34.499 879.576 34.6028V38.0463C879.576 38.9317 879.625 39.8419 879.625 39.8419C879.118 39.6943 878.441 39.5714 877.789 39.5714C874.022 39.5714 870.786 41.6132 870.786 46.7298C870.786 51.2067 873.128 52.9779 875.519 52.9779C877.21 52.9779 878.562 52.2891 879.601 51.3791H879.697L879.648 52.7368C879.642 52.8815 879.766 52.9958 879.907 52.9756L883.22 52.5988C883.333 52.5829 883.416 52.485 883.416 52.3694V37.1607Z" fill="#232323"/>
<path fill-rule="evenodd" clip-rule="evenodd" d="M921.508 39.5714C920.107 39.5714 918.731 40.6538 917.982 41.4655H917.885L917.932 39.8125C917.936 39.6718 917.817 39.5599 917.68 39.5756L914.341 39.9573C914.241 39.9686 914.166 40.0541 914.166 40.1562V52.4511C914.166 52.579 914.268 52.6826 914.394 52.6826H917.779C917.904 52.6826 918.006 52.579 918.006 52.4511V42.4742C918.344 42.1543 918.9 41.8344 919.334 41.8344C919.552 41.8344 919.697 41.8837 919.841 42.1543C920.3 42.9168 920.664 43.3575 921.701 43.3575C922.643 43.3575 923.485 42.5971 923.485 41.4164C923.485 40.2108 922.667 39.5714 921.508 39.5714Z" fill="#232323"/>
<path fill-rule="evenodd" clip-rule="evenodd" d="M836.042 51.9939C835.22 51.9939 834.568 51.6248 834.134 51.1082V42.1542C834.52 42.0067 835.124 41.7114 836.09 41.7114C837.925 41.7114 838.964 42.9413 838.964 46.459C838.964 50.9608 837.949 51.9939 836.042 51.9939ZM838.191 39.5715C836.5 39.5715 835.148 40.3832 834.134 41.2688H834.013L834.06 39.7968C834.064 39.6628 833.95 39.556 833.82 39.5711L830.468 39.957C830.369 39.9685 830.294 40.0542 830.294 40.1561V57.968C830.294 58.0873 830.396 58.1803 830.512 58.1669L833.959 57.7702C834.059 57.7588 834.134 57.6732 834.134 57.5713V54.2325C834.134 53.3716 834.11 52.732 834.11 52.732C834.641 52.8795 835.438 52.9778 835.945 52.9778C839.978 52.9778 842.924 50.7394 842.924 45.6227C842.924 41.1211 840.485 39.5715 838.191 39.5715Z" fill="#232323"/>
</g>
<g clip-path="url(#clip4_35_390)">
<path d="M1078.76 34.9219V42.495H1071.8V34.9219H1068.5V52.9996H1071.8V45.6724H1078.76V52.9996H1082.06V34.9219H1078.76Z" fill="#232323"/>
<path d="M1092.63 47.1556C1092.63 47.8801 1092.34 48.5749 1091.83 49.0872C1091.31 49.5995 1090.62 49.8873 1089.9 49.8873C1089.17 49.8873 1088.48 49.5995 1087.96 49.0872C1087.45 48.5749 1087.16 47.8801 1087.16 47.1556V39.4126H1084.03V47.1556C1084.03 48.7093 1084.65 50.1993 1085.75 51.298C1086.85 52.3966 1088.34 53.0138 1089.89 53.0138C1091.44 53.0138 1092.93 52.3966 1094.03 51.298C1095.13 50.1993 1095.75 48.7093 1095.75 47.1556V39.4126H1092.63V47.1556Z" fill="#232323"/>
<path d="M1115.83 40.2106C1115.83 38.6235 1116.88 38.1204 1118.03 38.1204C1118.96 38.1204 1120.19 38.8257 1120.99 39.6816L1123.04 37.2645C1122.01 35.8797 1119.94 34.9219 1118.24 34.9219C1114.84 34.9219 1112.38 36.9118 1112.38 40.2106C1112.38 46.3309 1119.86 44.3895 1119.86 47.8145C1119.86 48.8709 1118.84 49.8044 1117.66 49.8044C1115.81 49.8044 1115.21 48.8984 1114.36 47.9407L1112.08 50.3076C1113.54 52.0953 1115.33 53.0029 1117.49 53.0029C1120.71 53.0029 1123.31 50.9887 1123.31 47.8403C1123.31 41.0454 1115.83 43.1567 1115.83 40.2106" fill="#232323"/>
<path d="M1162.11 50.1116C1160.26 50.1116 1159.74 49.3108 1159.74 48.0844V42.6566H1162.61V39.9062H1159.74V36.2774L1156.56 37.7027V48.7591C1156.56 51.5871 1158.51 53.0124 1161.19 53.0124C1161.61 53.02 1162.03 52.9864 1162.44 52.9121L1163.22 50.0598C1162.87 50.0841 1162.46 50.1083 1162.11 50.1083" fill="#232323"/>
<path d="M1104.55 39.5039C1103 39.5039 1101.92 39.9537 1100.87 40.981V35.0306H1097.73V46.0594C1097.73 50.1881 1100.72 53.0161 1104.07 53.0161C1107.79 53.0161 1111.06 50.138 1111.06 46.2616C1111.06 42.4338 1108.05 39.5055 1104.55 39.5055V39.5039ZM1104.53 49.8597C1103.83 49.8597 1103.14 49.651 1102.55 49.2599C1101.97 48.8688 1101.51 48.3129 1101.24 47.6625C1100.97 47.0121 1100.9 46.2965 1101.04 45.6061C1101.18 44.9156 1101.52 44.2815 1102.01 43.7837C1102.51 43.2859 1103.15 42.9469 1103.84 42.8096C1104.53 42.6723 1105.24 42.7427 1105.89 43.0121C1106.54 43.2815 1107.1 43.7377 1107.49 44.323C1107.88 44.9084 1108.09 45.5965 1108.09 46.3005C1108.09 47.2444 1107.71 48.1497 1107.05 48.8172C1106.38 49.4847 1105.47 49.8597 1104.53 49.8597Z" fill="#232323"/>
<path d="M1138.61 46.0959C1138.61 42.2131 1135.34 39.3414 1131.62 39.3414C1128.26 39.3414 1125.28 42.1694 1125.28 46.2981V57.3334H1128.42V51.3749C1129.46 52.4006 1130.54 52.852 1132.09 52.852C1135.6 52.852 1138.61 49.9253 1138.61 46.0959H1138.61ZM1135.64 46.0571C1135.64 46.761 1135.43 47.4492 1135.04 48.0345C1134.65 48.6198 1134.09 49.076 1133.44 49.3454C1132.79 49.6148 1132.08 49.6853 1131.39 49.5479C1130.7 49.4106 1130.06 49.0716 1129.56 48.5738C1129.07 48.0761 1128.73 47.4419 1128.59 46.7514C1128.45 46.061 1128.52 45.3454 1128.79 44.695C1129.06 44.0446 1129.52 43.4888 1130.1 43.0977C1130.69 42.7066 1131.38 42.4978 1132.08 42.4978C1133.03 42.4978 1133.93 42.8728 1134.6 43.5403C1135.27 44.2078 1135.64 45.1131 1135.64 46.0571Z" fill="#232323"/>
<path d="M1148.71 39.2912V36.172C1149.13 35.9795 1149.48 35.6738 1149.72 35.2906C1149.97 34.9073 1150.1 34.4623 1150.1 34.0073V33.9345C1150.1 33.2987 1149.84 32.6895 1149.39 32.2399C1148.94 31.7903 1148.34 31.537 1147.7 31.5353H1147.63C1146.99 31.537 1146.38 31.7903 1145.93 32.2399C1145.48 32.6895 1145.23 33.2987 1145.23 33.9345V34.0073C1145.23 34.4623 1145.36 34.9073 1145.61 35.2906C1145.85 35.6738 1146.2 35.9795 1146.61 36.172V39.2912C1145.43 39.4724 1144.31 39.9636 1143.38 40.7149L1134.81 34.051C1134.87 33.8312 1134.91 33.6045 1134.91 33.3764C1134.91 32.8411 1134.75 32.3176 1134.45 31.8721C1134.16 31.4266 1133.74 31.0792 1133.24 30.8738C1132.75 30.6683 1132.2 30.6141 1131.68 30.7179C1131.15 30.8217 1130.67 31.0789 1130.29 31.457C1129.91 31.8351 1129.65 32.317 1129.55 32.8419C1129.44 33.3669 1129.5 33.9111 1129.7 34.406C1129.9 34.9008 1130.25 35.3239 1130.7 35.6218C1131.14 35.9198 1131.66 36.0792 1132.2 36.0798C1132.67 36.078 1133.13 35.9525 1133.54 35.7158L1141.96 42.2713C1141.2 43.4156 1140.8 44.762 1140.82 46.1347C1140.84 47.5074 1141.27 48.8426 1142.06 49.9657L1139.5 52.5284C1139.29 52.4629 1139.08 52.428 1138.86 52.4248C1138.42 52.4248 1137.99 52.5553 1137.63 52.7997C1137.26 53.0442 1136.98 53.3916 1136.81 53.7981C1136.64 54.2046 1136.6 54.6518 1136.68 55.0834C1136.77 55.5149 1136.98 55.9112 1137.29 56.2224C1137.6 56.5335 1138 56.7453 1138.43 56.8312C1138.86 56.917 1139.31 56.8729 1139.72 56.7046C1140.12 56.5362 1140.47 56.2511 1140.71 55.8853C1140.96 55.5194 1141.09 55.0893 1141.09 54.6494C1141.09 54.4335 1141.05 54.2192 1140.99 54.0136L1143.52 51.4784C1144.35 52.1105 1145.31 52.5452 1146.33 52.7492C1147.35 52.9533 1148.41 52.9213 1149.41 52.6558C1150.42 52.3903 1151.35 51.8982 1152.14 51.2171C1152.93 50.536 1153.55 49.6839 1153.96 48.726C1154.37 47.768 1154.55 46.7294 1154.5 45.6894C1154.44 44.6495 1154.15 43.6357 1153.64 42.7256C1153.14 41.8154 1152.43 41.0328 1151.58 40.4376C1150.72 39.8424 1149.74 39.4503 1148.71 39.2912ZM1147.66 49.5516C1146.97 49.5516 1146.29 49.3458 1145.72 48.9604C1145.14 48.575 1144.69 48.0272 1144.42 47.3863C1144.16 46.7454 1144.09 46.0402 1144.22 45.3598C1144.36 44.6794 1144.69 44.0544 1145.18 43.5639C1145.67 43.0734 1146.3 42.7393 1146.98 42.604C1147.66 42.4687 1148.37 42.5381 1149.01 42.8036C1149.65 43.0691 1150.19 43.5186 1150.58 44.0954C1150.97 44.6722 1151.17 45.3504 1151.17 46.0441C1151.17 46.9743 1150.8 47.8665 1150.14 48.5242C1149.49 49.182 1148.59 49.5516 1147.66 49.5516Z" fill="#232323"/>
</g>
<defs>
<clipPath id="clip0_35_390">
<rect width="148.333" height="40" fill="white" transform="translate(49.8335 24)"/>
</clipPath>
<clipPath id="clip1_35_390">
<rect width="137.5" height="40" fill="white" transform="translate(303.25 24)"/>
</clipPath>
<clipPath id="clip2_35_390">
<rect width="139.167" height="40" fill="white" transform="translate(550.417 24)"/>
</clipPath>
<clipPath id="clip3_35_390">
<rect width="111.667" height="40" fill="white" transform="translate(812.167 24)"/>
</clipPath>
<clipPath id="clip4_35_390">
<rect width="95" height="40" fill="white" transform="translate(1068.5 24)"/>
</clipPath>
</defs>
</svg>
