<svg width="95" height="44" viewBox="0 0 95 44" fill="none" xmlns="http://www.w3.org/2000/svg">
<rect width="95" height="44" rx="12" fill="white"/>
<path d="M39.98 27V16.92H45.769V17.949H41.009V21.449H44.929V22.471H41.009V27H39.98ZM47.1747 18.005V16.85H48.2037V18.005H47.1747ZM47.1747 27V19.44H48.2037V27H47.1747ZM50.4423 27V16.71H51.4713V27H50.4423ZM57.6858 27C57.2612 27.0887 56.8412 27.1237 56.4258 27.105C56.0152 27.0863 55.6465 26.9977 55.3198 26.839C54.9978 26.6803 54.7528 26.433 54.5848 26.097C54.4495 25.817 54.3748 25.5347 54.3608 25.25C54.3515 24.9607 54.3468 24.6317 54.3468 24.263V17.34H55.3688V24.221C55.3688 24.5383 55.3712 24.8043 55.3758 25.019C55.3852 25.229 55.4342 25.4157 55.5228 25.579C55.6908 25.8917 55.9568 26.0783 56.3208 26.139C56.6895 26.1997 57.1445 26.1857 57.6858 26.097V27ZM52.7298 20.322V19.44H57.6858V20.322H52.7298ZM62.1009 27.21C61.3635 27.21 60.7242 27.0467 60.1829 26.72C59.6462 26.3933 59.2285 25.9337 58.9299 25.341C58.6312 24.7483 58.4819 24.053 58.4819 23.255C58.4819 22.429 58.6289 21.715 58.9229 21.113C59.2169 20.511 59.6299 20.0467 60.1619 19.72C60.6985 19.3933 61.3309 19.23 62.0589 19.23C62.8055 19.23 63.4425 19.4027 63.9699 19.748C64.4972 20.0887 64.8962 20.5787 65.1669 21.218C65.4375 21.8573 65.5612 22.6203 65.5379 23.507H64.4879V23.143C64.4692 22.163 64.2569 21.4233 63.8509 20.924C63.4495 20.4247 62.8615 20.175 62.0869 20.175C61.2749 20.175 60.6519 20.4387 60.2179 20.966C59.7885 21.4933 59.5739 22.2447 59.5739 23.22C59.5739 24.172 59.7885 24.9117 60.2179 25.439C60.6519 25.9617 61.2655 26.223 62.0589 26.223C62.6002 26.223 63.0715 26.0993 63.4729 25.852C63.8789 25.6 64.1985 25.2383 64.4319 24.767L65.3909 25.138C65.0922 25.796 64.6512 26.307 64.0679 26.671C63.4892 27.0303 62.8335 27.21 62.1009 27.21ZM59.2099 23.507V22.646H64.9849V23.507H59.2099ZM67.0913 27V19.44H68.0153V21.26L67.8333 21.022C67.9173 20.798 68.027 20.5927 68.1623 20.406C68.2977 20.2147 68.4447 20.0583 68.6033 19.937C68.7993 19.7643 69.028 19.6337 69.2893 19.545C69.5507 19.4517 69.8143 19.398 70.0803 19.384C70.3463 19.3653 70.589 19.384 70.8083 19.44V20.406C70.533 20.336 70.232 20.3197 69.9053 20.357C69.5787 20.3943 69.2777 20.525 69.0023 20.749C68.7503 20.945 68.5613 21.1807 68.4353 21.456C68.3093 21.7267 68.2253 22.016 68.1833 22.324C68.1413 22.6273 68.1203 22.9283 68.1203 23.227V27H67.0913ZM74.6838 27.203C73.7971 27.203 73.0668 27.0117 72.4928 26.629C71.9235 26.2463 71.5735 25.7143 71.4428 25.033L72.4928 24.858C72.6048 25.2873 72.8591 25.6303 73.2558 25.887C73.6571 26.139 74.1518 26.265 74.7398 26.265C75.3138 26.265 75.7665 26.146 76.0978 25.908C76.4291 25.6653 76.5948 25.3363 76.5948 24.921C76.5948 24.6877 76.5411 24.4987 76.4338 24.354C76.3311 24.2047 76.1188 24.067 75.7968 23.941C75.4748 23.815 74.9941 23.6657 74.3548 23.493C73.6688 23.3063 73.1321 23.1197 72.7448 22.933C72.3575 22.7463 72.0821 22.5317 71.9188 22.289C71.7555 22.0417 71.6738 21.7407 71.6738 21.386C71.6738 20.9567 71.7951 20.581 72.0378 20.259C72.2805 19.9323 72.6165 19.6803 73.0458 19.503C73.4751 19.321 73.9745 19.23 74.5438 19.23C75.1131 19.23 75.6218 19.3233 76.0698 19.51C76.5225 19.692 76.8865 19.9487 77.1618 20.28C77.4371 20.6113 77.6005 20.9963 77.6518 21.435L76.6018 21.624C76.5318 21.1807 76.3101 20.8307 75.9368 20.574C75.5681 20.3127 75.0991 20.1773 74.5298 20.168C73.9931 20.154 73.5568 20.2567 73.2208 20.476C72.8848 20.6907 72.7168 20.9777 72.7168 21.337C72.7168 21.5377 72.7775 21.7103 72.8988 21.855C73.0201 21.995 73.2395 22.128 73.5568 22.254C73.8788 22.38 74.3361 22.5177 74.9288 22.667C75.6241 22.8443 76.1701 23.031 76.5668 23.227C76.9635 23.423 77.2458 23.654 77.4138 23.92C77.5818 24.186 77.6658 24.515 77.6658 24.907C77.6658 25.621 77.3998 26.1833 76.8678 26.594C76.3405 27 75.6125 27.203 74.6838 27.203Z" fill="#566A7F"/>
<path fill-rule="evenodd" clip-rule="evenodd" d="M21 18C21 17.4477 21.4477 17 22 17H32C32.5523 17 33 17.4477 33 18C33 18.5523 32.5523 19 32 19H22C21.4477 19 21 18.5523 21 18ZM23 22C23 21.4477 23.4477 21 24 21H30C30.5523 21 31 21.4477 31 22C31 22.5523 30.5523 23 30 23H24C23.4477 23 23 22.5523 23 22ZM25 26C25 25.4477 25.4477 25 26 25H28C28.5523 25 29 25.4477 29 26C29 26.5523 28.5523 27 28 27H26C25.4477 27 25 26.5523 25 26Z" fill="#566A7F"/>
</svg>
