<svg width="14" height="13" viewBox="0 0 14 13" fill="none" xmlns="http://www.w3.org/2000/svg">
<path fill-rule="evenodd" clip-rule="evenodd" d="M1.86668 0.866211C1.61915 0.866211 1.38175 0.95752 1.20672 1.12005C1.03168 1.28258 0.93335 1.50302 0.93335 1.73288V11.2662C0.93335 11.4961 1.03168 11.7165 1.20672 11.879C1.38175 12.0416 1.61915 12.1329 1.86668 12.1329H12.1333C12.3809 12.1329 12.6183 12.0416 12.7933 11.879C12.9683 11.7165 13.0667 11.4961 13.0667 11.2662V1.73288C13.0667 1.50302 12.9683 1.28258 12.7933 1.12005C12.6183 0.95752 12.3809 0.866211 12.1333 0.866211H1.86668ZM2.84668 5.19954H4.62002V10.3995H2.84668V5.19954ZM4.73668 3.47054C4.73668 3.71764 4.63098 3.95461 4.44281 4.12933C4.25465 4.30405 3.99945 4.40221 3.73335 4.40221C3.46725 4.40221 3.21205 4.30405 3.02389 4.12933C2.83572 3.95461 2.73002 3.71764 2.73002 3.47054C2.73002 3.22345 2.83572 2.98648 3.02389 2.81176C3.21205 2.63704 3.46725 2.53888 3.73335 2.53888C3.99945 2.53888 4.25465 2.63704 4.44281 2.81176C4.63098 2.98648 4.73668 3.22345 4.73668 3.47054ZM11.2 7.24228C11.2 5.67794 10.1108 5.06954 9.02908 5.06954C8.67555 5.0536 8.32355 5.12255 8.00708 5.26974C7.76722 5.38241 7.51615 5.63721 7.32202 6.08268H7.27255V5.19954H5.60002V10.4039H7.37895V7.63488C7.35375 7.35148 7.45082 6.98488 7.65055 6.76734C7.85122 6.54894 8.13588 6.49694 8.35335 6.47094H8.42148C8.98708 6.47094 9.40708 6.79594 9.40708 7.61494V10.403H11.186L11.2 7.24228Z" fill="#696CFF"/>
</svg>
