<svg width="20" height="20" viewBox="0 0 20 20" fill="none" xmlns="http://www.w3.org/2000/svg">
<g clip-path="url(#clip0_35_2123)">
<path d="M19.9997 9.79281C19.9997 4.45855 15.6754 0.134277 10.3412 0.134277C5.00689 0.134277 0.682617 4.45855 0.682617 9.79281C0.682617 14.6136 4.21459 18.6094 8.83201 19.334V12.5847H6.37964V9.79281H8.83201V7.66492C8.83201 5.24425 10.274 3.90714 12.4802 3.90714C13.5366 3.90714 14.6422 4.09579 14.6422 4.09579V6.47269H13.4243C12.2246 6.47269 11.8503 7.21727 11.8503 7.98184V9.79281H14.529L14.1008 12.5847H11.8503V19.334C16.4677 18.6094 19.9997 14.6136 19.9997 9.79281Z" fill="#222222"/>
</g>
<defs>
<clipPath id="clip0_35_2123">
<rect width="19.3171" height="19.3171" fill="white" transform="translate(0.682617 0.134277)"/>
</clipPath>
</defs>
</svg>
