<svg width="21" height="20" viewBox="0 0 21 20" fill="none" xmlns="http://www.w3.org/2000/svg">
<g clip-path="url(#clip0_35_2127)">
<path d="M18.8383 0.135254H2.37732C1.58879 0.135254 0.951172 0.757777 0.951172 1.52744V18.0564C0.951172 18.826 1.58879 19.4523 2.37732 19.4523H18.8383C19.6269 19.4523 20.2682 18.826 20.2682 18.0601V1.52744C20.2682 0.757777 19.6269 0.135254 18.8383 0.135254ZM6.68216 16.5963H3.81478V7.37538H6.68216V16.5963ZM5.24847 6.11902C4.32789 6.11902 3.58463 5.37576 3.58463 4.45896C3.58463 3.54215 4.32789 2.7989 5.24847 2.7989C6.16527 2.7989 6.90853 3.54215 6.90853 4.45896C6.90853 5.37199 6.16527 6.11902 5.24847 6.11902ZM17.4122 16.5963H14.5486V12.1141C14.5486 11.0464 14.5297 9.66929 13.0583 9.66929C11.568 9.66929 11.3416 10.8351 11.3416 12.0386V16.5963H8.48181V7.37538H11.2285V8.63552H11.2662C11.6472 7.91113 12.5829 7.14524 13.9751 7.14524C16.8764 7.14524 17.4122 9.05431 17.4122 11.5369V16.5963Z" fill="#222222"/>
</g>
<defs>
<clipPath id="clip0_35_2127">
<rect width="19.3171" height="19.3171" fill="white" transform="translate(0.951172 0.134277)"/>
</clipPath>
</defs>
</svg>
