<svg width="20" height="20" viewBox="0 0 20 20" fill="none" xmlns="http://www.w3.org/2000/svg">
<g clip-path="url(#clip0_35_2125)">
<path fill-rule="evenodd" clip-rule="evenodd" d="M9.97543 0.134277C4.64102 0.134277 0.316895 4.46517 0.316895 9.80923C0.316895 14.0831 3.08407 17.7099 6.92237 18.9887C7.40529 19.0776 7.58108 18.7791 7.58108 18.5222C7.58108 18.2933 7.57335 17.6838 7.56852 16.8773C4.88152 17.4617 4.31456 15.5802 4.31456 15.5802C3.87607 14.4618 3.24247 14.1643 3.24247 14.1643C2.36547 13.5654 3.30911 13.577 3.30911 13.577C4.27786 13.6446 4.78783 14.5738 4.78783 14.5738C5.64937 16.0515 7.04889 15.6246 7.59846 15.3774C7.68732 14.7525 7.93651 14.3265 8.21275 14.0851C6.06855 13.8407 3.81328 13.0101 3.81328 9.30313C3.81328 8.24745 4.18997 7.38301 4.80715 6.70691C4.70767 6.46255 4.37638 5.47835 4.9018 4.1474C4.9018 4.1474 5.71312 3.88662 7.5579 5.13837C8.34581 4.92348 9.15874 4.81402 9.97543 4.81287C10.7964 4.81674 11.6222 4.92395 12.3939 5.13837C14.2377 3.88662 15.0471 4.14643 15.0471 4.14643C15.5745 5.47835 15.2422 6.46255 15.1437 6.70691C15.7619 7.38301 16.1366 8.24745 16.1366 9.30313C16.1366 13.0197 13.8775 13.8378 11.7265 14.0773C12.0733 14.3758 12.3814 14.9659 12.3814 15.869C12.3814 17.1613 12.3698 18.2054 12.3698 18.5222C12.3698 18.781 12.5436 19.0824 13.0343 18.9877C14.9576 18.3427 16.6295 17.1095 17.8138 15.4624C18.9981 13.8154 19.6348 11.8378 19.634 9.80923C19.634 4.46517 15.3089 0.134277 9.97543 0.134277Z" fill="#222222"/>
</g>
<defs>
<clipPath id="clip0_35_2125">
<rect width="19.3171" height="19.3171" fill="white" transform="translate(0.316895 0.134277)"/>
</clipPath>
</defs>
</svg>
