<svg width="1240" height="88" viewBox="0 0 1240 88" fill="none" xmlns="http://www.w3.org/2000/svg">
<g clip-path="url(#clip0_35_366)">
<path d="M80.7793 29H68.5835V58.1667L80.7793 29Z" fill="#232323"/>
<path d="M89.3604 29H101.54V58.1667L89.3604 29Z" fill="#232323"/>
<path d="M85.07 39.75L92.8324 58.1669H87.7395L85.4196 52.3033H79.7388L85.07 39.75Z" fill="#232323"/>
<path d="M121.437 47.5479L122.875 51.6715C122.922 51.7747 122.994 51.8224 123.121 51.8224H125.886C126.037 51.8224 126.061 51.7509 126.037 51.6L120.324 35.7335C120.3 35.6064 120.277 35.5825 120.15 35.5825H116.717C116.622 35.5825 116.566 35.654 116.566 35.7573C116.519 36.5916 116.447 36.8458 116.344 37.0921L111.251 51.5761C111.227 51.7509 111.283 51.8224 111.426 51.8224H113.897C114.048 51.8224 114.119 51.7747 114.175 51.6238L115.533 47.5479H121.437ZM116.32 44.8545C117.067 42.5981 118.052 39.7061 118.449 38.0535H118.473C118.966 39.7855 120.126 43.2178 120.65 44.8545H116.32Z" fill="#232323"/>
<path d="M133.381 52.0689C134.867 52.0689 136.448 51.7988 138.053 51.1076C138.18 51.0599 138.204 51.0043 138.204 50.8851C138.156 50.4402 138.1 49.7966 138.1 49.304V34.3671C138.1 34.2718 138.1 34.2241 137.981 34.2241H135.288C135.185 34.2241 135.137 34.2718 135.137 34.3989V39.46C134.716 39.4123 134.422 39.3885 134.072 39.3885C129.726 39.3885 127.057 42.2567 127.057 45.8399C127.057 49.9953 129.798 52.0689 133.381 52.0689ZM135.137 49.304C134.692 49.447 134.199 49.5027 133.699 49.5027C131.728 49.5027 130.116 48.3903 130.116 45.689C130.116 43.2975 131.776 41.8833 133.977 41.8833C134.422 41.8833 134.811 41.9309 135.137 42.058V49.304Z" fill="#232323"/>
<path d="M146.796 39.3887C143.086 39.3887 140.79 42.233 140.79 45.7448C140.79 48.8831 142.617 52.0691 146.74 52.0691C150.228 52.0691 152.675 49.5029 152.675 45.6653C152.675 42.2807 150.602 39.3887 146.796 39.3887ZM146.645 41.8835C148.743 41.8835 149.633 43.687 149.633 45.7448C149.633 48.2872 148.322 49.5505 146.796 49.5505C144.913 49.5505 143.801 47.9694 143.801 45.6892C143.801 43.3454 144.985 41.8835 146.645 41.8835Z" fill="#232323"/>
<path d="M155.46 34.2241C155.357 34.2241 155.285 34.2718 155.285 34.3989V51.3062C155.285 51.3777 155.357 51.5048 155.46 51.5287C156.644 51.8941 157.883 52.0689 159.162 52.0689C162.825 52.0689 166.385 49.7966 166.385 45.2202C166.385 41.9071 164.112 39.3885 160.553 39.3885C159.734 39.3885 158.972 39.5156 158.304 39.7381L158.273 34.4227C158.273 34.248 158.225 34.2241 158.05 34.2241H155.46ZM163.342 45.5221C163.342 48.2632 161.466 49.5503 159.44 49.5503C159.019 49.5503 158.646 49.5265 158.304 49.4232V42.209C158.694 42.058 159.162 41.9309 160.028 41.9309C161.983 41.9309 163.342 43.1704 163.342 45.5221Z" fill="#232323"/>
<path d="M176.436 46.4122C177.644 46.4122 178.637 46.3884 178.979 46.3089C179.106 46.2851 179.154 46.2374 179.177 46.1341C179.249 45.864 179.281 45.2999 179.281 44.6086C179.281 42.2569 177.866 39.3887 174.212 39.3887C170.477 39.3887 168.404 42.4317 168.404 45.864C168.404 48.907 170.009 52.0691 174.506 52.0691C176.19 52.0691 177.279 51.799 178.216 51.3541C178.311 51.3064 178.359 51.227 178.359 51.0839V49.0261C178.359 48.907 178.288 48.8831 178.216 48.9308C177.279 49.3281 176.262 49.5267 175.149 49.5267C172.631 49.5267 171.487 48.1363 171.415 46.4122H176.436ZM171.415 44.2829C171.614 43.0752 172.376 41.7643 174.085 41.7643C175.968 41.7643 176.46 43.3454 176.46 44.0604C176.46 44.0843 176.46 44.1875 176.46 44.2591C176.357 44.2829 176.039 44.2829 175.102 44.2829H171.415Z" fill="#232323"/>
</g>
<g clip-path="url(#clip1_35_366)">
<path d="M401.611 39.5189C403.62 37.484 405.846 38.0825 405.846 40.0562C405.846 41.9826 403.565 44.0621 400.814 45.674C400.548 45.8271 400.232 46.0052 399.913 46.1639C399.806 45.6795 399.745 45.1422 399.745 44.5437C399.745 42.8985 400.435 40.7104 401.611 39.5189ZM390.897 60.2918C388.229 62.9949 384.819 59.5485 388.798 55.5175C389.699 54.6044 391.177 53.5995 392.716 52.6836C393.593 54.8884 392.897 58.2568 390.897 60.2918ZM373.901 49.4683C371.854 49.4683 370.53 46.9823 370.939 43.9118C371.34 40.8412 373.327 38.3553 375.371 38.3553C377.265 38.3553 378.54 40.4905 378.394 43.2465C378.342 43.6445 378.295 44.0287 378.257 44.399C377.718 47.2357 375.833 49.4683 373.901 49.4683ZM346.878 48.4466C346.211 49.1231 345.394 49.4822 344.567 49.4822C343.795 49.4822 343.127 49.1287 342.575 48.5691C340.682 46.6511 340.847 41.9436 343.279 39.4716C343.968 38.7729 344.801 38.3664 345.658 38.3664C346.425 38.3664 347.098 38.7116 347.65 39.2712C349.434 41.0779 349.538 45.7519 346.878 48.4466ZM410.226 49.4516C410.226 49.4516 409.467 48.377 409.234 48.0708C409.074 47.8704 408.877 47.6254 408.354 47.9873C407.203 48.7696 405.906 49.485 404.307 49.485C403.087 49.485 402.018 49.1704 401.224 48.4884C401.556 48.3353 401.905 48.1655 402.262 47.9734C404.15 46.9378 405.725 45.6238 406.483 44.8555C410.157 41.1335 409.006 35.5826 404.529 35.5826C400.3 35.5826 396.959 39.7583 396.959 44.3962C396.959 45.0949 397.041 46.0915 397.338 47.1522C397.088 47.2746 395.415 48.0959 393.406 49.2178C391.518 47.7813 388.572 48.4271 388.572 48.4271C391.306 44.4964 395.423 38.3553 395.772 37.8486C396.022 37.4867 395.983 37.1276 395.742 36.5597C395.431 35.8777 395.121 35.7524 394.695 35.7524H386.149C385.868 35.7524 385.649 35.8833 385.566 36.2062C385.489 36.5207 385.308 37.6176 385.278 37.9934C385.239 38.3692 385.588 38.6003 385.951 38.6003H392.142L386.542 46.7151C386.503 46.7457 386.465 46.7847 386.434 46.8376C385.624 48.0263 384.373 49.6938 382.873 49.6938C381.942 49.6938 380.79 49.0173 380.79 46.807C380.79 44.6412 381.653 40.0673 382.282 36.504C382.351 36.1199 382.222 35.7441 381.615 35.7441H380.1C379.751 35.7441 379.554 35.9584 379.501 36.2591C379.411 36.8047 379.32 37.342 379.229 37.857C378.479 36.4066 377.281 35.5854 375.547 35.5854C373.94 35.5854 372.373 36.1923 371.093 37.4812C367.894 40.7215 368.502 46.0024 365.743 48.7974C364.553 50.0028 363.204 49.6353 363.204 47.2635C363.204 44.5549 364.226 41.5372 365.402 38.6726C365.605 38.166 365.385 37.7428 365.168 37.4144C364.858 36.955 364.737 36.7073 364.176 36.7073C363.305 36.7073 361.912 37.2668 359.123 37.2668C358.532 37.2668 357.963 37.2445 357.455 37.2056C357.485 36.7824 357.493 36.4985 357.502 36.3927C357.518 35.9946 357.381 35.7413 356.963 35.7413H355.54C355.023 35.7413 354.897 35.9863 354.836 36.3927C354.594 38.1187 354.133 44.4602 350.995 47.6393C350.632 48.0068 350.412 48.1237 350.412 48.1237C351.192 46.5731 351.616 44.5382 351.616 42.9263C351.616 38.3887 348.964 35.5798 345.636 35.5798C344.619 35.5798 343.545 35.9111 342.537 36.5458C343.006 33.7815 343.438 31.1953 343.589 30.3212C343.718 29.5835 343.452 29.1993 343.262 28.8931C342.941 28.3892 342.657 28.1665 342.234 28.1665H337.324C337.043 28.1665 336.832 28.3669 336.763 28.6815C336.681 29.049 336.505 30.0177 336.483 30.4632C336.466 30.8557 336.733 31.0004 337.043 31.0004H340.635C340.058 34.5693 338.967 41.4871 338.635 43.2214C338.22 45.4318 336.664 48.1404 334.051 49.1008C333.724 49.2233 333.589 49.524 333.71 49.8775C333.831 50.2311 334.279 51.1525 334.414 51.3891C334.551 51.6341 334.853 51.7956 335.142 51.6954C336.499 51.211 337.741 50.4287 338.725 49.4377C338.967 49.1927 339.203 48.9143 339.429 48.6164C340.602 51.2889 342.99 52.2633 345.438 52.2633C348.203 52.2633 351.19 51.2889 353.281 49.1621C355.729 46.69 356.751 42.5923 357.183 39.6887C357.79 39.7723 358.48 39.8418 359.137 39.8418C360.818 39.8418 362.228 39.4799 362.228 39.4799C362.228 39.4799 360.533 44.0398 360.533 47.4027C360.533 51.1943 362.322 52.2688 364.306 52.2688C366.344 52.2688 367.776 50.7182 368.798 48.8002C369.065 49.3987 369.458 50.1141 369.996 50.657C370.92 51.5924 372.066 52.2688 373.717 52.2688C375.605 52.2688 377.226 51.1636 378.378 49.4683C378.581 50.181 378.9 50.7823 379.331 51.2193C379.914 51.8095 380.983 52.2716 382.324 52.2716C384.626 52.2716 385.962 50.5206 389.545 50.5206C389.998 50.5206 390.408 50.5902 390.779 50.721C389.136 51.7343 387.575 52.8256 386.619 53.7916C383.665 56.7842 383.527 60.7233 385.467 62.6887C387.817 65.0688 391.166 63.8773 393.257 61.7589C395.706 59.2785 396.418 54.5905 395 51.3808C396.712 50.4677 398.143 49.7912 398.484 49.6298C399.553 51.1108 401.325 52.2716 404.249 52.2716C406.34 52.2716 408.448 51.52 410.091 50.2617C410.355 50.0835 410.407 49.7133 410.226 49.4516Z" fill="#232323"/>
</g>
<g clip-path="url(#clip2_35_366)">
<path fill-rule="evenodd" clip-rule="evenodd" d="M553.789 55.7519V52.3797H568.964V55.7519H553.789ZM565.74 38.8908H557.011L561.376 44.9327L565.74 38.8908ZM572.336 35.5186L561.376 50.6936L550.417 35.5186H572.336Z" fill="#232323"/>
<path d="M585.711 52.381V46.9686H580.521V52.381H577.392V38.8921H580.521V44.171H585.711V38.8893H588.84V52.3782L585.711 52.381Z" fill="#232323"/>
<path d="M592.789 52.3811V38.8922H601.336V41.76H595.918V44.1711H600.851V46.8956H595.918V49.5273H601.336V52.3811H592.789Z" fill="#232323"/>
<path d="M605.063 52.3811V38.8922H608.191V49.5301H613.604V52.3839L605.063 52.3811Z" fill="#232323"/>
<path d="M616.23 52.3811V38.8922H619.363V49.5301H624.774V52.3839L616.23 52.3811Z" fill="#232323"/>
<path d="M633.601 52.6017C629.422 52.6017 626.754 49.6018 626.754 45.6437C626.754 41.6855 629.551 38.6674 633.73 38.6674C637.909 38.6674 640.577 41.6686 640.577 45.6437C640.577 49.6187 637.761 52.6017 633.601 52.6017ZM633.653 41.4663C631.518 41.4663 630.082 43.2142 630.082 45.6437C630.082 48.0731 631.518 49.8224 633.653 49.8224C635.787 49.8224 637.224 48.0548 637.224 45.6437C637.224 43.2325 635.791 41.4663 633.653 41.4663Z" fill="#232323"/>
<path d="M647.338 52.6017C645.811 52.6017 643.966 51.9947 642.793 51.2205L643.657 48.3864C644.743 49.1775 646.161 49.6931 647.431 49.6931C648.535 49.6931 648.958 49.1775 648.958 48.5157C648.958 47.8131 648.609 47.3368 646.547 46.5092C644.173 45.5523 643.348 44.1711 643.348 42.551C643.348 40.5839 644.948 38.6674 648.096 38.6674C649.568 38.6674 651.079 39.183 651.87 39.717L651.076 42.5145C650.302 41.9806 649.051 41.4101 648.093 41.4101C646.952 41.4101 646.492 41.944 646.492 42.4962C646.492 43.38 647.173 43.6751 648.867 44.3917C651.388 45.4596 652.142 46.675 652.142 48.4047C652.142 50.5587 650.578 52.6017 647.338 52.6017Z" fill="#232323"/>
<path d="M655.498 52.3811V38.8922H658.627V52.3811H655.498Z" fill="#232323"/>
<path d="M674.226 44.7978V51.2401C672.679 52.1583 670.908 52.6296 669.109 52.6017C665.152 52.6017 662.023 49.7676 662.023 45.6436C662.023 41.5197 665.189 38.6674 669.275 38.6674C671.042 38.6674 672.459 39.1282 673.802 39.828L672.495 42.3487C671.566 41.8595 670.533 41.6007 669.483 41.5942C666.795 41.5942 665.36 43.269 665.36 45.6436C665.36 48.2206 667.09 49.8224 669.294 49.8224C670.288 49.8224 670.785 49.7114 671.283 49.4543V47.4661H668.575V44.7964L674.226 44.7978Z" fill="#232323"/>
<path d="M689.086 52.6382L680.951 45.3317V52.3811H677.822V38.7053L678.243 38.6309L686.269 45.8825V38.8894H689.398V52.5834L689.086 52.6382Z" fill="#232323"/>
</g>
<g clip-path="url(#clip3_35_366)">
<path fill-rule="evenodd" clip-rule="evenodd" d="M810.866 53.8768C808.156 51.1898 808.156 46.8335 810.866 44.1466L818.226 36.8487C820.517 34.5773 824.011 34.226 826.674 35.7949C827.498 36.2801 827.491 37.3933 826.813 38.065C826.136 38.7367 825.03 38.6789 824.11 38.4123C822.933 38.0708 821.609 38.3604 820.68 39.2813L813.319 46.5791C811.964 47.9226 811.964 50.1007 813.319 51.4442C814.674 52.7878 816.871 52.7878 818.226 51.4442L832.947 36.8488C835.657 34.1619 840.051 34.1619 842.761 36.8488L850.121 44.1466C852.831 46.8334 852.831 51.1898 850.121 53.8768C847.411 56.5637 843.017 56.5637 840.307 53.8768L837.854 51.4442L834.787 54.485C832.496 56.7564 829.002 57.1076 826.339 55.5388C825.515 55.0536 825.523 53.9404 826.2 53.2687C826.877 52.5969 827.983 52.6547 828.903 52.9214C830.081 53.2629 831.405 52.9732 832.334 52.0524L835.488 48.9248C836.795 47.6293 838.913 47.6293 840.22 48.9248L842.761 51.4442C844.116 52.7877 846.313 52.7877 847.668 51.4442C849.023 50.1007 849.023 47.9226 847.668 46.5791L840.307 39.2814C838.952 37.9379 836.755 37.9379 835.4 39.2814L820.68 53.8769C817.97 56.5638 813.576 56.5638 810.866 53.8768Z" fill="#232323"/>
<path d="M879.871 38.7331C878.166 38.7331 876.874 39.3437 876.021 40.565C875.272 39.3437 874.084 38.7331 872.508 38.7331C870.88 38.7331 869.691 39.2929 868.916 40.4377V39.0893H865.583V51.8103H868.916V44.6611C868.916 42.8038 869.872 41.7862 871.345 41.7862C872.714 41.7862 873.515 42.6766 873.515 44.2032V51.8103H876.848V44.6611C876.848 42.8038 877.727 41.7862 879.251 41.7862C880.62 41.7862 881.421 42.6766 881.421 44.2032V51.8103H884.754V43.9741C884.754 40.7939 882.842 38.7331 879.871 38.7331Z" fill="#232323"/>
<path d="M897.144 40.5904C896.137 39.3437 894.741 38.7331 892.933 38.7331C891.202 38.7331 889.729 39.3946 888.489 40.6922C887.275 41.9897 886.655 43.5671 886.655 45.4498C886.655 47.3325 887.275 48.9354 888.489 50.2329C889.729 51.5304 891.202 52.1665 892.933 52.1665C894.741 52.1665 896.137 51.5558 897.144 50.3092V51.8102H900.477V39.0893H897.144V40.5904ZM890.995 48.0449C890.323 47.3579 889.987 46.4929 889.987 45.4498C889.987 44.4067 890.323 43.5417 890.995 42.8802C891.667 42.1932 892.519 41.8625 893.553 41.8625C894.586 41.8625 895.439 42.1932 896.111 42.8802C896.808 43.5417 897.144 44.4067 897.144 45.4498C897.144 46.4929 896.808 47.3579 896.111 48.0449C895.439 48.7064 894.586 49.0371 893.553 49.0371C892.519 49.0371 891.667 48.7064 890.995 48.0449Z" fill="#232323"/>
<path d="M912.775 41.2773V39.0893H903.086V42.1677H908.279L902.827 49.6222V51.8102H913.033V48.7317H907.297L912.775 41.2773Z" fill="#232323"/>
<path d="M926.968 46.7982C927.046 46.3149 927.097 45.8823 927.097 45.4498C927.097 43.5417 926.478 41.9643 925.238 40.6667C924.023 39.3692 922.447 38.7331 920.561 38.7331C918.572 38.7331 916.919 39.3692 915.652 40.6667C914.386 41.9388 913.74 43.5417 913.74 45.4498C913.74 47.3834 914.386 48.9863 915.678 50.2583C916.97 51.5304 918.675 52.1665 920.819 52.1665C923.299 52.1665 925.186 51.2505 926.452 49.4442L923.765 47.9177C923.119 48.7572 922.138 49.1898 920.871 49.1898C918.882 49.1898 917.668 48.4011 917.228 46.7982H926.968ZM917.177 44.254C917.564 42.6257 918.778 41.6844 920.561 41.6844C922.085 41.6844 923.377 42.524 923.765 44.254H917.177Z" fill="#232323"/>
</g>
<g clip-path="url(#clip4_35_366)">
<path d="M1078.58 49.7319H1072.72V52.6625H1078.58V49.7319Z" fill="#232323"/>
<path d="M1087.37 49.7319H1081.51V52.6625H1087.37V49.7319Z" fill="#232323"/>
<path d="M1087.37 43.871H1072.71V46.8016H1087.37V43.871Z" fill="#232323"/>
<path d="M1081.51 38.0105H1072.72V40.9409H1081.51V38.0105Z" fill="#232323"/>
<path d="M1087.37 38.0105H1084.44V40.9409H1087.37V38.0105Z" fill="#232323"/>
<path d="M1129.91 37.9938C1125.21 37.9938 1122.77 41.3221 1122.77 45.4277C1122.77 49.5335 1125.15 52.862 1129.91 52.862C1134.68 52.862 1137.05 49.5335 1137.05 45.4277C1137.05 41.3221 1134.62 37.9938 1129.91 37.9938ZM1133.47 45.441C1133.47 48.0811 1132.58 50.2195 1129.91 50.2195C1127.24 50.2195 1126.35 48.0813 1126.35 45.441V45.4278C1126.35 42.7879 1127.24 40.6497 1129.91 40.6497C1132.58 40.6497 1133.47 42.7879 1133.47 45.4278V45.4345C1133.47 45.4367 1133.47 45.4388 1133.47 45.441Z" fill="#232323"/>
<path d="M1108.84 52.6622V32.1086C1108.84 32.1086 1111.55 31.7236 1111.76 31.6953C1112 31.6631 1112.31 31.8326 1112.31 32.1678V39.7871C1112.88 39.2522 1113.5 38.8211 1114.17 38.4926C1114.85 38.1644 1115.64 38.0001 1116.55 38.0001C1117.34 38.0001 1118.04 38.1338 1118.65 38.4013C1119.26 38.6682 1119.76 39.0439 1120.17 39.5266C1120.58 40.01 1120.89 40.5868 1121.1 41.2575C1121.31 41.9282 1121.42 42.667 1121.42 43.4737V52.662H1117.94V43.4737C1117.94 42.5921 1117.74 41.9096 1117.33 41.4261C1116.92 40.9432 1116.31 40.7016 1115.49 40.7016C1114.89 40.7016 1114.33 40.8377 1113.81 41.11C1113.28 41.3821 1112.78 41.7522 1112.31 42.2216V52.6622H1108.84Z" fill="#232323"/>
<path d="M1155.24 52.8601C1152.85 52.8601 1151.35 51.4682 1151.35 48.8715V41.1758H1148.65C1148.65 41.1758 1149.22 39.1943 1149.27 39.0383C1149.31 38.8824 1149.43 38.7149 1149.67 38.6818C1149.91 38.6488 1151.34 38.4487 1151.34 38.4487L1152.01 34.2348C1152.01 34.2348 1153.95 33.9604 1154.26 33.9144C1154.55 33.8708 1154.82 34.0806 1154.82 34.398V38.4487H1158.22V41.1758H1154.82V48.7678C1154.82 49.8044 1155.45 50.2006 1156.05 50.2006C1156.42 50.2006 1156.93 50.0042 1157.31 49.829C1157.54 49.721 1157.9 49.8011 1157.99 50.127C1158.08 50.4158 1158.52 51.9485 1158.52 51.9485C1158.14 52.1933 1156.94 52.8601 1155.24 52.8601Z" fill="#232323"/>
<path d="M1146.74 41.2217C1146.06 41.0017 1144.79 40.6495 1143.58 40.6495C1142.35 40.6495 1141.38 41.0758 1141.38 42.1019C1141.38 43.3834 1143.47 43.7565 1144.9 44.2789C1145.86 44.6281 1148.43 45.309 1148.43 48.071C1148.43 51.426 1145.64 52.8604 1142.67 52.8604C1139.7 52.8604 1137.94 51.7549 1137.94 51.7549C1137.94 51.7549 1138.4 50.1262 1138.49 49.8047C1138.58 49.5154 1138.91 49.4139 1139.13 49.4961C1139.89 49.791 1141.28 50.2009 1142.84 50.2009C1144.42 50.2009 1145.18 49.7182 1145.18 48.6892C1145.18 47.3197 1143.05 46.9011 1141.64 46.4558C1140.66 46.1492 1138.09 45.4343 1138.09 42.3967C1138.09 39.4044 1140.72 38.0005 1143.52 38.0005C1145.9 38.0005 1147.07 38.4976 1147.94 38.9413C1147.94 38.9413 1147.45 40.6327 1147.38 40.8847C1147.3 41.1842 1147.05 41.3215 1146.74 41.2217Z" fill="#232323"/>
<path d="M1107.48 38.4959C1107.48 38.1722 1107.21 37.9869 1106.94 38.0171C1105.78 38.1507 1104.94 38.6996 1104.4 39.2106C1103.35 38.3824 1101.88 37.9869 1100.23 37.9869C1096.93 37.9869 1094.35 39.5805 1094.35 43.0553C1094.35 45.0501 1095.2 46.4246 1096.55 47.2338C1095.55 47.7078 1094.88 48.7137 1094.88 49.7026C1094.88 51.3568 1096.19 51.8748 1096.19 51.8748C1096.19 51.8748 1093.9 52.9838 1093.9 55.2026C1093.9 58.043 1096.52 59.1914 1099.71 59.1914C1104.32 59.1914 1107.48 57.2898 1107.48 53.7982C1107.48 51.6492 1105.84 50.4629 1102.25 50.3219C1100.13 50.2379 1098.75 50.1614 1098.41 50.0484C1097.96 49.8987 1097.74 49.5377 1097.74 49.1391C1097.74 48.6991 1098.1 48.2802 1098.67 47.9925C1099.16 48.0805 1099.69 48.1239 1100.23 48.1239C1103.54 48.1239 1106.12 46.535 1106.12 43.0555C1106.12 42.2118 1105.96 41.4793 1105.69 40.8535C1106.17 40.5945 1106.77 40.4123 1107.48 40.4123C1107.48 40.4123 1107.48 38.7911 1107.48 38.4959ZM1098.38 52.6805C1098.38 52.6805 1100.12 52.7461 1101.85 52.8263C1103.8 52.9163 1104.4 53.3358 1104.4 54.3437C1104.4 55.5752 1102.71 56.7729 1100.35 56.7729C1098.1 56.7729 1096.98 55.9922 1096.98 54.6924C1096.98 53.9466 1097.38 53.1123 1098.38 52.6805ZM1100.24 45.6984C1098.68 45.6984 1097.46 44.8676 1097.46 43.0553C1097.46 41.2429 1098.68 40.4121 1100.24 40.4121C1101.8 40.4121 1103.02 41.2407 1103.02 43.0553C1103.02 44.87 1101.8 45.6984 1100.24 45.6984Z" fill="#232323"/>
</g>
<defs>
<clipPath id="clip0_35_366">
<rect width="110.833" height="40" fill="white" transform="translate(68.5835 24)"/>
</clipPath>
<clipPath id="clip1_35_366">
<rect width="76.6667" height="40" fill="white" transform="translate(333.667 24)"/>
</clipPath>
<clipPath id="clip2_35_366">
<rect width="139.167" height="40" fill="white" transform="translate(550.417 24)"/>
</clipPath>
<clipPath id="clip3_35_366">
<rect width="118.333" height="40" fill="white" transform="translate(808.833 24)"/>
</clipPath>
<clipPath id="clip4_35_366">
<rect width="86.6667" height="40" fill="white" transform="translate(1072.67 24)"/>
</clipPath>
</defs>
</svg>
